<svg id="squatch-logo-svg" xmlns="http://www.w3.org/2000/svg" viewBox="0 0 235.33 71.55"><defs><style>.cls-1{fill:#fff;}.cls-2{fill:#d47f29;}.cls-3{fill:#333;}.cls-4{fill:#771214;}.cls-5{fill:#323f1d;}.cls-6{fill:#212717;}.cls-7{fill:#865c32;}.cls-8{fill:#be4727;}.cls-9{fill:#fee0c2;}.cls-10{fill:#a07147;}.cls-11{fill:#313f1c;}.cls-12{fill:#fff5ec;}.cls-13{fill:#4cb749;}.cls-14{fill:#fdfefb;}.cls-15{fill:#392b13;}</style></defs><title>dr_squatch_horizontal_log</title><g id="Layer_2" data-name="Layer 2"><g id="Layer_1-2" data-name="Layer 1"><g id="_Group_" data-name="&lt;Group&gt;"><path class="cls-1" d="M55.05,27.41c-.06-.34-.13-.67-.2-1A3.58,3.58,0,0,1,56.58,26a3.4,3.4,0,1,1-.86,6.7A44.88,44.88,0,0,0,55.05,27.41Z"/><path class="cls-2" d="M55.72,32.68c.07,1,.1,2,.1,3.1,0,19.69-12.47,35.65-27.85,35.65S.12,55.47.12,35.78,12.59.12,28,.12c12.85,0,23.67,11.15,26.88,26.3a3.38,3.38,0,0,0-1.8,3A3.43,3.43,0,0,0,55.72,32.68Zm-2.67-.32a1.87,1.87,0,0,0-1.39-1.81c-1.88-16-11.93-28.2-24.06-28.2C14.14,2.35,3.23,17.4,3.23,36A42.53,42.53,0,0,0,8,55.9H8c4.44,8.3,11.58,13.68,19.62,13.68a18.13,18.13,0,0,0,6.54-1.23c4.86-1.86,9.11-5.74,12.24-11h0A41.86,41.86,0,0,0,52,36c0-.63,0-1.26,0-1.88A1.89,1.89,0,0,0,53.05,32.36Z"/><path class="cls-1" d="M55.05,27.41a44.88,44.88,0,0,1,.67,5.27,3.43,3.43,0,0,1-2.67-3.3,3.38,3.38,0,0,1,1.8-3C54.92,26.74,55,27.07,55.05,27.41Z"/><path class="cls-1" d="M51.66,30.55a1.87,1.87,0,0,1,1.39,1.81,1.89,1.89,0,0,1-1.11,1.72C51.89,32.88,51.8,31.71,51.66,30.55Z"/><path class="cls-3" d="M36.23,26.08c-1.15-3.57-2.72-7.46-4.42-8.67a22.53,22.53,0,0,0-2.4-2.4c-.36-.12-.72,1-.72,1l-1.08-1.32-.84.72a18.83,18.83,0,0,0,.36-1.92c0-.35-.8.77-.85.83s.58-1.57,0-2.15l-.59,1.68a9.74,9.74,0,0,0-1.56-1.32c-.36-.12-1.2.24-1.32-.6l-.6.6-.24-1-.24-1-.48,1.2-1.92-1.2,1.08,2.53-1.08-.48s1.68,1.8,1.08,2.28a.79.79,0,0,1-1.08,0,5.68,5.68,0,0,1,0,2.52s-3.84,8-4.32,10.44c0,0-1.56,3.84-1.44,4.56l.12.72s1.2-.72,1.2-1.44.36,4.21-.12,4.69-.24,2.28-.48,3.12.24,1.08-.24,1.68,1.56-.48,1.56-1.08v-.6a8.15,8.15,0,0,1,0,2.52l-.24,1-.48,1,2.16-.48v.9s-4.91,1.56-2.81,3.54c0,0-5.29,4.64-6.26,8A42.53,42.53,0,0,1,3.23,36C3.23,17.4,14.14,2.35,27.6,2.35c12.13,0,22.18,12.21,24.06,28.2a1.95,1.95,0,0,0-1,0A2.17,2.17,0,1,0,48.54,33a2.05,2.05,0,0,0,.83-.17,1.87,1.87,0,0,0,1.81,1.39,1.91,1.91,0,0,0,.76-.15c0,.62,0,1.25,0,1.88a41.86,41.86,0,0,1-5.59,21.43c-.13-3.92-6-9.78-6.22-10h0s1.43.19-2.87-1.47h0c.27.14.76-.44.76-.44l.84.12a.87.87,0,0,0-.6-1c-.72-.24-1.08-1.32-.36-1.32s.12-1.08.12-1.08a9.31,9.31,0,0,1-.12-1.08c0-.36-.12-1.8-.12-1.8a2.06,2.06,0,0,1,.25-.68c.08-.17.22-.43.34-.74a4.58,4.58,0,0,0,.28-.91,11.57,11.57,0,0,1,1.89,2.21s4.08,3,8.72,1.12c0,0,.23-1.85.3-2.5a.72.72,0,1,0-1-.87.73.73,0,0,0-.4-.13.72.72,0,0,0-.56.27c-.14,0-.28,0-.44,0h0A.84.84,0,0,0,47,36.6a.27.27,0,0,0,.16,0,.29.29,0,0,0,.29-.29.3.3,0,1,0-.59,0,.28.28,0,0,0,0,.15.8.8,0,0,0-.55-.22.84.84,0,0,0-.84.84v.06h0v0a.55.55,0,0,0-.57-.51.54.54,0,0,0-.57.51.41.41,0,0,0,0,.16l-.2,0a5.38,5.38,0,0,0-.6,2s0,.52-2.44-.48a13.47,13.47,0,0,0-2.48-2.43,1,1,0,0,0-.08-.3s-.07-3.44-.55-3.32C38.07,32.77,37.36,29.59,36.23,26.08Zm9.83,9.12a.75.75,0,1,0-.75.75A.75.75,0,0,0,46.06,35.2Z"/><path class="cls-1" d="M51.66,30.55c.14,1.16.23,2.33.28,3.53a1.91,1.91,0,0,1-.76.15,1.87,1.87,0,0,1-1.81-1.39,2.29,2.29,0,0,0,1.33-2.11v-.18a1.95,1.95,0,0,1,1,0Z"/><path class="cls-1" d="M50.7,30.55v.18a2.29,2.29,0,0,1-1.33,2.11,1.86,1.86,0,0,1-.06-.48A1.89,1.89,0,0,1,50.7,30.55Z"/><path class="cls-1" d="M48.54,28.45a2.21,2.21,0,0,1,2.16,2.1,1.89,1.89,0,0,0-1.39,1.81,1.86,1.86,0,0,0,.06.48,2.05,2.05,0,0,1-.83.17,2.28,2.28,0,0,1,0-4.56Z"/><path class="cls-1" d="M49.28,36.52a.72.72,0,0,1,.32,1.36c0-.11,0-.19,0-.22a2.1,2.1,0,0,0-.75-.32h0A.73.73,0,0,0,48.6,37,.72.72,0,0,1,49.28,36.52Z"/><path class="cls-4" d="M49.62,37.66s0,.11,0,.22a.72.72,0,0,1-.32.08.78.78,0,0,1-.4-.12.59.59,0,0,0,0-.23.76.76,0,0,0-.05-.27A2.1,2.1,0,0,1,49.62,37.66Z"/><path class="cls-4" d="M49.6,37.88c-.07.65-.3,2.5-.3,2.5-4.64,1.84-8.72-1.12-8.72-1.12a11.57,11.57,0,0,0-1.89-2.21,1.84,1.84,0,0,0,0-.66,13.47,13.47,0,0,1,2.48,2.43c2.44,1,2.44.48,2.44.48a5.38,5.38,0,0,1,.6-2l.2,0a.56.56,0,0,0,.54.35.55.55,0,0,0,.57-.48h0a.84.84,0,0,0,.84.78.83.83,0,0,0,.83-.84c.16,0,.3,0,.44,0a.67.67,0,0,0-.17.46.72.72,0,0,0,.73.72.71.71,0,0,0,.68-.49.78.78,0,0,0,.4.12A.72.72,0,0,0,49.6,37.88Z"/><path class="cls-4" d="M48.87,37.34a.76.76,0,0,1,.05.27.59.59,0,0,1,0,.23.73.73,0,0,1-.32-.57l.31.07Z"/><path class="cls-4" d="M48.56,37.27a.73.73,0,0,0,.32.57.71.71,0,0,1-.68.49.72.72,0,0,1-.73-.72.67.67,0,0,1,.17-.46A6.29,6.29,0,0,1,48.56,37.27Z"/><path class="cls-1" d="M48.6,37a.73.73,0,0,1,.27.33l-.31-.07v0A.85.85,0,0,1,48.6,37Z"/><path class="cls-1" d="M48.6,37a.85.85,0,0,0,0,.23v0a6.29,6.29,0,0,0-.92-.12.72.72,0,0,1,.56-.27A.73.73,0,0,1,48.6,37Z"/><path class="cls-1" d="M47.18,36.05a.3.3,0,0,1,.29.3.29.29,0,0,1-.29.29.27.27,0,0,1-.16,0l-.1-.1a.28.28,0,0,1,0-.15A.3.3,0,0,1,47.18,36.05Z"/><path class="cls-1" d="M47.2,37.12h0a14.57,14.57,0,0,0-1.67.06v-.06a.84.84,0,0,1,.84-.84.8.8,0,0,1,.55.22.32.32,0,0,0,.1.1A.84.84,0,0,1,47.2,37.12Z"/><path class="cls-4" d="M45.53,37.18a14.57,14.57,0,0,1,1.67-.06.83.83,0,0,1-.83.84A.84.84,0,0,1,45.53,37.18Z"/><path class="cls-1" d="M46.92,36.5l.1.1A.32.32,0,0,1,46.92,36.5Z"/><polygon class="cls-5" points="46.38 57.39 46.38 57.4 46.38 57.39 46.38 57.39"/><path class="cls-4" d="M46.38,57.39h0l-6.22-10C40.35,47.61,46.25,53.47,46.38,57.39Z"/><path class="cls-4" d="M40.16,47.42l6.22,10c-3.13,5.22-7.38,9.1-12.24,11,0-1.08,1.37-9.22,1.37-9.22h0l0,0,0,0h0c.47-.49,3-3.18,3.74-5l-.42-.66s1.74-.62,1.68-.88l-.06-.26-.36-4.8Z"/><path class="cls-1" d="M45.31,34.45a.75.75,0,1,1-.74.75A.75.75,0,0,1,45.31,34.45Z"/><path class="cls-1" d="M45.53,37.15v0c-.35,0-.71.07-1.11.13a.41.41,0,0,1,0-.16.54.54,0,0,1,.57-.51A.55.55,0,0,1,45.53,37.15Z"/><path class="cls-4" d="M45.53,37.18a.55.55,0,0,1-.57.48.56.56,0,0,1-.54-.35C44.82,37.25,45.18,37.21,45.53,37.18Z"/><path class="cls-6" d="M40.58,52.48c.06.26-1.68.88-1.68.88l.42.66c-.71,1.85-3.27,4.54-3.74,5a6,6,0,0,0,.75-2.48.06.06,0,0,1,0,0,6.2,6.2,0,0,0,.11-.77v-.1c.14-1.11.24-2.37.32-3.61,0-.77.09-1.54.12-2.26.09-2.22.1-3.95.1-3.95l.29.11c4.3,1.66,2.87,1.47,2.87,1.47l.36,4.8Z"/><path class="cls-7" d="M26.28,14.28c0-.06.85-1.18.85-.83a18.83,18.83,0,0,1-.36,1.92l.84-.72L28.69,16s.36-1.08.72-1a22.53,22.53,0,0,1,2.4,2.4c1.7,1.21,3.27,5.1,4.42,8.67h-.88A24.51,24.51,0,0,0,34,23.53l-.72-1.32-1,.48v-1l-.48.75v2.76l-.72.72.09.23.63,1.57H30.73l-1.32-.6c-.45-.2-.59-.27-.62-.29l0,0a2.09,2.09,0,0,0-.38-.21,1.59,1.59,0,0,1-1-1.32l-.72-.84v-1l-1.2.73v-1.2l-.36.47c-.36.46-1-1.55-1-1.55-.24-.6-1.2,0-1.2,0l-.84,1.08L21.61,22c-1.8,1.56,0,3.36,0,3.36l-.28.24c-.28.24-.16.24.08.48s-.44,1.2-.44,1.2l.12.28a11.52,11.52,0,0,0,.44,2.24c.2.24,0,.48-.28,1.48s0,1,.08,1.36,0,1.2.16,1.44-.32,1.77-.32,1.77l-.64.32v.48l.24-.08-.24,1.16a16.35,16.35,0,0,1,2.72-.89c.44,0,.44.65.44.65v.64L24.77,38s-.08-.6,1.32-.64,1,.8,1,.8l.6.12-.16.68.72-.08.68.64,0-.24c0-.24,1.76-.16,1.76-.16a13,13,0,0,1,2.28-.6l1.8-.48.61,1.08.6-.72,1.68-.24c.14,0,.24-.08.3-.25l.41,0c-.12.31-.26.57-.34.74a2.06,2.06,0,0,0-.25.68s.12,1.44.12,1.8a9.31,9.31,0,0,0,.12,1.08s.6,1.08-.12,1.08-.36,1.08.36,1.32a.87.87,0,0,1,.6,1l-.84-.12s-.49.58-.76.44a.2.2,0,0,1-.08-.08c-.24-.36-1.68-.24-1.68-.24a.72.72,0,0,1-1,.6c-.84-.24-1.5.78-1.5.78l-.9.06a2.46,2.46,0,0,0-.6.21,2.05,2.05,0,0,0-.26.16,1,1,0,0,1-.29.17,5.72,5.72,0,0,1-1.85.3H28v-1l-1.68.48c-1.92.12-2.4-.84-2.4-.84s-2,.48-2.4,0a4.82,4.82,0,0,0-.95-.89s-1.45-.43-2.05-.07-1.44-.72-1.44-.72V43.46l-2.16.48.48-1,.24-1a8.15,8.15,0,0,0,0-2.52v.6c0,.6-2,1.68-1.56,1.08s0-.84.24-1.68,0-2.64.48-3.12.12-5.41.12-4.69-1.2,1.44-1.2,1.44l-.12-.72c-.12-.72,1.44-4.56,1.44-4.56.48-2.4,4.32-10.44,4.32-10.44a5.68,5.68,0,0,0,0-2.52.79.79,0,0,0,1.08,0c.6-.48-1.08-2.28-1.08-2.28l1.08.48-1.08-2.53,1.92,1.2.48-1.2.24,1,.24,1,.6-.6c.12.84,1,.48,1.32.6a9.74,9.74,0,0,1,1.56,1.32l.59-1.68C26.86,12.71,26.31,14.21,26.28,14.28Zm-6,2.33,5.78-.44a2.2,2.2,0,0,1-1.64-.6c-.4-.44-.36-.5-.36-.5s-.88,1.38-1.28.94a10.33,10.33,0,0,1-.92-2.49,5.2,5.2,0,0,0-.52,1.69C21.33,15.85,20.27,16.61,20.27,16.61Zm-.65,11.24s1-.72.54-1.08c0,0-.09-1-.48-.88a1.15,1.15,0,0,0-.59-.8s-1-.4-1.16,0a.79.79,0,0,0-.05.85c-.13-.1-.31-.16-.43.07-.28.52-.36-.24-.56.2s-1.12.16,0,.6c0,0-.72-.16-.76.48,0,0-.52.16,0,.44,0,0,.76.1.64.29,0,0-.64.19-.64.63,0,0-.72,1.32,1,1.56,0,0,.68-.24.72.08,0,0-.32,1.36,1.2.84,0,0,1.72-.8.8-2.24C19.89,28.89,19.24,28.05,19.62,27.85Z"/><path class="cls-8" d="M38.7,36.39a1.84,1.84,0,0,1,0,.66,7.22,7.22,0,0,0-.67-.54c0-.22-.05-.44-.08-.65A8.53,8.53,0,0,1,38.7,36.39Z"/><path class="cls-7" d="M38.62,36.09a1,1,0,0,1,.08.3,8.53,8.53,0,0,0-.76-.53c-.11-.7-.24-1.29-.24-1.29a22.35,22.35,0,0,0-2.35-8.49h.88c1.13,3.51,1.84,6.69,1.84,6.69C38.55,32.65,38.62,36.09,38.62,36.09Z"/><path class="cls-7" d="M38.69,37.05a4.58,4.58,0,0,1-.28.91l-.41,0a4.07,4.07,0,0,0,0-1.42A7.22,7.22,0,0,1,38.69,37.05Z"/><path class="cls-9" d="M36.62,35.69a6.79,6.79,0,0,1,1.4.82,4.07,4.07,0,0,1,0,1.42c-.06.17-.16.27-.3.25L36,38.42l-.6.72-.61-1.08-1.8.48a13,13,0,0,0-2.28.6S29,39.06,29,39.3l0,.24-.68-.64-.72.08.16-.68-.6-.12s.4-.84-1-.8-1.32.64-1.32.64l-1.08.08v-.64s0-.6-.44-.65a16.35,16.35,0,0,0-2.72.89l.24-1.16-.24.08v-.48l.64-.32s.52-1.53.32-1.77,0-1.08-.16-1.44-.4-.36-.08-1.36.48-1.24.28-1.48a11.52,11.52,0,0,1-.44-2.24L21,27.25s.68-1,.44-1.2-.36-.24-.08-.48l.28-.24s-1.8-1.8,0-3.36l.6,1.08L23.05,22s1-.6,1.2,0c0,0,.6,2,1,1.55l.36-.47v1.2l1.2-.73v1l.72.84a1.59,1.59,0,0,0,1,1.32,2.09,2.09,0,0,1,.38.21l0,0s.17.09.62.29l1.32.6h1.08l-.63-1.57.21-.08h4a22.35,22.35,0,0,1,2.35,8.49s.13.59.24,1.29A8.9,8.9,0,0,0,36,34.93v.56A3,3,0,0,1,36.62,35.69ZM31.1,36s-.33-1.2-.93-1.52l-1,1.21c-1.16-2.61-2-2-2-2-.19,0-.55,1-.7,1.4h0l-.06.17h0l0,.23c1.19.16,2.93.37,4.68.48ZM36,28.15A1.89,1.89,0,1,0,34.14,30,1.89,1.89,0,0,0,36,28.15Zm-8.6.65a1.89,1.89,0,1,0-1.89,1.89A1.89,1.89,0,0,0,27.43,28.8Z"/><path class="cls-8" d="M36.62,35.69a3,3,0,0,0-.59-.2v-.56a8.9,8.9,0,0,1,1.91.93c0,.21.06.43.08.65A6.79,6.79,0,0,0,36.62,35.69Z"/><path class="cls-10" d="M37.3,45.94h0L37,45.84s0,1.73-.1,3.95h-.38c-.38.15-.83-.36-.83-.36-.35-.21-.86.16-1,.27l-1.26-1.42c.1,0-.09-.63-.09-.63s.25-.45.21-.54a3.78,3.78,0,0,0-1.35,0,1.94,1.94,0,0,0-.55.17,2,2,0,0,0-.33.19l0,0a2.05,2.05,0,0,1,.26-.16,2.46,2.46,0,0,1,.6-.21l.9-.06s.66-1,1.5-.78a.72.72,0,0,0,1-.6s1.44-.12,1.68.24A.2.2,0,0,0,37.3,45.94Z"/><path class="cls-10" d="M36.52,49.78h.38c0,.72-.07,1.49-.12,2.26L34.7,49.69c.13-.11.64-.48,1-.27C35.69,49.42,36.14,49.93,36.52,49.78Z"/><path class="cls-11" d="M32.1,50a10.42,10.42,0,0,0-.28-1.32h0a15.78,15.78,0,0,0,1.61-.39l1.26,1.42,2.08,2.36s-.22,2.58-.32,3.61v.07c0,.28-.07.55-.11.8a.06.06,0,0,0,0,0A10,10,0,0,1,35.52,59l-.27-.3a.55.55,0,0,0,0-.25,3,3,0,0,0-.4-.69,18.72,18.72,0,0,0-3.08-2.87,22.33,22.33,0,0,0,.49-3.41A7.91,7.91,0,0,0,32.1,50Z"/><path class="cls-11" d="M36.45,55.73v0a6.2,6.2,0,0,1-.11.77C36.38,56.28,36.42,56,36.45,55.73Z"/><path class="cls-10" d="M32.1,50a7.91,7.91,0,0,1,.11,1.49,22.33,22.33,0,0,1-.49,3.41,18.72,18.72,0,0,1,3.08,2.87,3,3,0,0,1,.4.69.55.55,0,0,1,0,.25l.27.3a10,10,0,0,0,.81-2.43,6,6,0,0,1-.75,2.48h0l0,0,0,0h0l-.36-.43c.58-2-16.4-12.91-16.66-13.08h0c.6-.36,2.05.07,2.05.07a4.82,4.82,0,0,1,.95.89c.36.48,2.4,0,2.4,0s.48,1,2.4.84L28,46.94v1h1.2A5.72,5.72,0,0,0,31,47.6a1,1,0,0,0,.29-.17l0,0c-.15.1-.26.21-.26.27s.39.36.48.42.15.48.27.51A10.42,10.42,0,0,1,32.1,50Z"/><path class="cls-11" d="M35.57,59.06l0,0Z"/><path class="cls-12" d="M34.14,26.26a1.89,1.89,0,1,1-1.89,1.89A1.89,1.89,0,0,1,34.14,26.26Zm.79,1.89a.24.24,0,1,0-.47,0c0,.16.11.3.23.3A.28.28,0,0,0,34.93,28.15Z"/><path class="cls-4" d="M35.15,58.7l.36.43s-1.37,8.14-1.37,9.22a18.13,18.13,0,0,1-6.54,1.23c-8,0-15.18-5.38-19.62-13.68H8c1-3.36,6.26-8,6.26-8l8.92,5.46a4.76,4.76,0,0,1,4-1.2l-.3,2.1C28.44,54.62,35.15,58.7,35.15,58.7Z"/><path class="cls-9" d="M35.35,26.08h-4l-.21.08-.09-.23.72-.72V22.45l.48-.75v1l1-.48L34,23.53A24.51,24.51,0,0,1,35.35,26.08Z"/><path class="cls-6" d="M18.49,45.62c.26.17,17.24,11.12,16.66,13.08,0,0-6.71-4.08-8.32-4.44l.3-2.1a4.76,4.76,0,0,0-4,1.2Z"/><ellipse class="cls-13" cx="34.69" cy="28.15" rx="0.23" ry="0.3"/><path class="cls-11" d="M33.56,47.1c0,.09-.21.54-.21.54s.19.6.09.63l-1.61.39h0c-.12,0-.18-.45-.27-.51s-.48-.26-.48-.42.11-.17.26-.27a2,2,0,0,1,.33-.19,1.94,1.94,0,0,1,.55-.17A3.78,3.78,0,0,1,33.56,47.1Z"/><path class="cls-11" d="M31.83,48.66l1.61-.39A15.78,15.78,0,0,1,31.83,48.66Z"/><path class="cls-14" d="M31.1,36h0l-2-.3h0l1-1.21C30.77,34.77,31.1,36,31.1,36Z"/><path class="cls-9" d="M29.13,35.67l2,.3c-1.75-.11-3.49-.32-4.68-.48l0-.23Z"/><path class="cls-14" d="M29.13,35.66h0l-2.69-.41,0-.18h0c.15-.4.51-1.36.7-1.4C27.17,33.67,28,33.05,29.13,35.66Z"/><path class="cls-12" d="M25.54,26.91a1.89,1.89,0,1,1-1.89,1.89A1.89,1.89,0,0,1,25.54,26.91Zm.78,1.84a.27.27,0,1,0-.54,0,.28.28,0,1,0,.54,0Z"/><path class="cls-14" d="M26.47,35.08l0,.18h0Z"/><path class="cls-13" d="M26.05,28.43a.3.3,0,0,1,.27.32.28.28,0,1,1-.54,0A.3.3,0,0,1,26.05,28.43Z"/><path class="cls-7" d="M26.05,16.17l-5.78.44s1.06-.76,1.06-1.4a5.2,5.2,0,0,1,.52-1.69A10.33,10.33,0,0,0,22.77,16c.4.44,1.28-.94,1.28-.94s0,.06.36.5A2.2,2.2,0,0,0,26.05,16.17Z"/><path class="cls-6" d="M18.49,45.62l4.67,7.74L14.24,47.9c-2.1-2,2.81-3.54,2.81-3.54v.54s.84,1.08,1.44.72Z"/><path class="cls-7" d="M20.16,26.77c.43.36-.54,1.08-.54,1.08-.38.2.27,1,.27,1,.92,1.44-.8,2.24-.8,2.24-1.52.52-1.2-.84-1.2-.84,0-.32-.72-.08-.72-.08-1.76-.24-1-1.56-1-1.56,0-.44.64-.63.64-.63.12-.19-.64-.29-.64-.29-.52-.28,0-.44,0-.44,0-.64.76-.48.76-.48-1.12-.44-.2-.16,0-.6s.28.32.56-.2c.12-.23.3-.17.43-.07l.05.07c.2.25.11,0-.05-.07a.79.79,0,0,1,.05-.85c.2-.4,1.16,0,1.16,0a1.15,1.15,0,0,1,.59.8C20.07,25.77,20.16,26.77,20.16,26.77Z"/><path class="cls-7" d="M17.88,25.94c.16.12.25.32.05.07Z"/><path class="cls-15" d="M28,71.55c-15.42,0-28-16-28-35.77S12.55,0,28,0C40.58,0,51.68,10.85,55,26.39l-.24.05C51.47,11,40.46.24,28,.24,12.68.24.24,16.18.24,35.78S12.68,71.31,28,71.31,55.7,55.37,55.7,35.78c0-1,0-2.07-.1-3.09l.24,0c.07,1,.1,2.08.1,3.11C55.94,55.5,43.4,71.55,28,71.55Z"/><path class="cls-15" d="M27.6,69.7C19.85,69.7,12.48,64.56,7.88,56l.21-.11c4.56,8.52,11.85,13.61,19.51,13.61a18,18,0,0,0,6.49-1.22c4.79-1.83,9-5.6,12.19-10.91l0-.06A42,42,0,0,0,51.85,36c0-.65,0-1.28,0-1.88h.24c0,.6,0,1.24,0,1.89A42.21,42.21,0,0,1,46.5,57.42v.09h0c-3.21,5.33-7.46,9.11-12.27,11A18.45,18.45,0,0,1,27.6,69.7Z"/><path class="cls-15" d="M7.88,56A42.46,42.46,0,0,1,3.11,36c0-18.6,11-33.73,24.49-33.73,5.86,0,11.53,2.89,16,8.14a38.48,38.48,0,0,1,8.21,20.17l-.24,0c-.91-7.76-3.81-14.88-8.16-20s-10-8.06-15.78-8.06C14.23,2.47,3.35,17.49,3.35,36A42.2,42.2,0,0,0,8.09,55.84Z"/><path class="cls-15" d="M29,39.66l-.74-.7-.78.08.17-.7L27,38.22l0-.07a.5.5,0,0,0,0-.44c-.12-.19-.44-.29-.93-.27-.73,0-1,.19-1.17.34a.33.33,0,0,0-.09.23v.06h-.06l-1.15.08v-.7s0-.55-.39-.59a15.36,15.36,0,0,0-2.69.88l-.1,0,.24-1.16-.22.07v-.6l.65-.33a4,4,0,0,0,.32-1.68,1.54,1.54,0,0,1-.12-.82,2.4,2.4,0,0,0-.05-.64.93.93,0,0,0-.1-.2c-.12-.21-.23-.41,0-1.19.07-.22.13-.41.19-.56.19-.57.23-.71.1-.87A10.65,10.65,0,0,1,21,27.55l-.13-.31,0,0c.27-.38.59-1,.45-1.13l-.12-.1c-.08-.08-.14-.14-.14-.21s.06-.16.18-.25l.23-.2a2.92,2.92,0,0,1-.77-1.86,2.16,2.16,0,0,1,.82-1.55l.06,0,.59,1.06.8-1a1.47,1.47,0,0,1,1-.25.47.47,0,0,1,.29.28c.17.59.54,1.53.77,1.57,0,0,0,0,.08,0l.47-.61v1.27l1.2-.73v1.06l.72.84v0a1.54,1.54,0,0,0,.93,1.27c.38.19.39.2.4.22l-.1.07-.35-.19a1.65,1.65,0,0,1-1-1.35l-.72-.84v-.89l-1.2.74V23.23l-.25.32a.2.2,0,0,1-.2.09c-.38-.07-.79-1.39-.87-1.65a.34.34,0,0,0-.21-.21c-.31-.1-.82.19-.89.23l-.89,1.15-.61-1.1a2,2,0,0,0-.72,1.41,2.79,2.79,0,0,0,.78,1.82l.05,0-.33.29s-.14.12-.14.16.05.07.1.12a.6.6,0,0,1,.12.11c.25.25-.26,1-.41,1.25l.11.27a9.48,9.48,0,0,0,.43,2.2c.17.22.1.43-.09,1l-.18.55c-.24.74-.14.91,0,1.1a1.5,1.5,0,0,1,.11.22,2.73,2.73,0,0,1,.05.68,1.56,1.56,0,0,0,.1.75c.21.25-.23,1.56-.31,1.82v0l-.63.31v.36l.26-.08-.24,1.15a14.38,14.38,0,0,1,2.64-.85c.4,0,.5.48.5.71V38l1-.07a.43.43,0,0,1,.12-.25,1.64,1.64,0,0,1,1.26-.39c.53,0,.88.09,1,.32a.59.59,0,0,1,.05.49l.59.12-.15.66.66-.08.62.59,0-.13c0-.25,1.14-.24,1.81-.21a12.35,12.35,0,0,1,2.28-.6L34.84,38l.58,1,.56-.67h0l1.69-.24h0c.07,0,.17,0,.24-.21a3.79,3.79,0,0,0,0-1.4h.12a3.6,3.6,0,0,1,0,1.45c-.08.26-.24.3-.35.29l-1.65.23-.64.77-.62-1.11L33,38.59a13.8,13.8,0,0,0-2.26.6h0a4.43,4.43,0,0,0-1.7.11Z"/><path class="cls-15" d="M37.88,35.87c-.11-.69-.24-1.28-.24-1.28a22.27,22.27,0,0,0-2.34-8.48,26.3,26.3,0,0,0-1.38-2.55l-.69-1.27-1,.5v-.88l-.36.56v2.77l-.71.71.08.19.66,1.65H30.71l-1.32-.6-.63-.29.06-.11.62.29,1.31.59h1L31,25.92l.73-.73V22.43l.6-.93v1.09l.93-.46L34,23.5s.64,1,1.38,2.55a22.77,22.77,0,0,1,2.35,8.52h0s.13.59.24,1.28Z"/><path class="cls-15" d="M28.83,26.92h0l0,0h-.05v-.06h.06v-.06h.05v0h0Z"/><path class="cls-15" d="M18,26.19s-.06,0-.16-.14a.35.35,0,0,1-.05-.08l-.22-.31.3.23s.21.17.19.25v0H18Z"/><path class="cls-15" d="M18.49,31.31a.68.68,0,0,1-.48-.16,1,1,0,0,1-.18-.86.18.18,0,0,0,0-.07c-.14-.08-.47,0-.59.05h0A1.37,1.37,0,0,1,16,29.65a1.17,1.17,0,0,1,.05-1c0-.41.49-.61.64-.66a1.25,1.25,0,0,0-.59-.19h0c-.19-.1-.27-.2-.26-.3s.16-.2.23-.23a.52.52,0,0,1,.21-.39.58.58,0,0,1,.28-.12c-.25-.1-.28-.14-.28-.2s.07-.08.17-.11a.55.55,0,0,0,.38-.24c.05-.11.1-.17.16-.18a.17.17,0,0,1,.17.07s.07.06.1.06.06,0,.14-.16a.31.31,0,0,1,.21-.18.29.29,0,0,1,.13,0,1,1,0,0,1,.14-.75c.22-.43,1.19,0,1.23,0a1.14,1.14,0,0,1,.61.78.26.26,0,0,1,.17.05c.24.16.31.73.33.87a.37.37,0,0,1,.11.27c0,.39-.64.87-.67.89a.16.16,0,0,0-.09.11c-.05.24.25.69.37.84a1.48,1.48,0,0,1,.23,1.21,2.08,2.08,0,0,1-1.06,1.13A2,2,0,0,1,18.49,31.31Zm-.88-1.24a.41.41,0,0,1,.23.05.21.21,0,0,1,.11.17h0a.86.86,0,0,0,.14.75c.19.17.52.18,1,0a2,2,0,0,0,1-1,1.37,1.37,0,0,0-.22-1.11s-.46-.6-.39-.93a.26.26,0,0,1,.15-.19c.16-.12.6-.51.61-.79a.23.23,0,0,0-.09-.19l0,0v0c0-.19-.1-.69-.28-.82a.13.13,0,0,0-.12,0l-.07,0V25.9a1.09,1.09,0,0,0-.55-.75c-.26-.11-.94-.32-1.09,0a.71.71,0,0,0-.05.79l.18.28-.27-.2a.26.26,0,0,0-.21-.08.27.27,0,0,0-.13.13c-.07.13-.14.2-.22.22a.25.25,0,0,1-.2-.09s0-.05-.06,0,0,0-.08.11a.67.67,0,0,1-.46.31h0l.47.2,0,.11a.73.73,0,0,0-.52.08.43.43,0,0,0-.16.35v0h0c-.08,0-.19.08-.19.14s0,.09.19.18.6.1.68.26a.13.13,0,0,1,0,.12l0,0h0s-.59.18-.59.57v0a1.11,1.11,0,0,0-.06.91,1.27,1.27,0,0,0,1,.56A1.66,1.66,0,0,1,17.61,30.07Z"/><path class="cls-15" d="M33.35,36.17c-.68,0-1.43,0-2.26-.08v-.24a15.89,15.89,0,0,0,5.48-.28l.07.23A10.89,10.89,0,0,1,33.35,36.17Z"/><path class="cls-15" d="M31.08,36.09c-1.4-.09-3-.25-4.68-.48-.95-.13-1.56-.24-1.57-.24l0-.23,1.56.23c1.7.23,3.27.39,4.67.48Z"/><path class="cls-15" d="M31,36a3.06,3.06,0,0,0-.78-1.4l-1.1,1.27L29,35.7c-.68-1.53-1.22-1.88-1.48-2a.41.41,0,0,0-.3,0l0,0a4.38,4.38,0,0,0-.61,1.33L26.36,35c.47-1.31.67-1.45.76-1.47a.58.58,0,0,1,.46-.05c.52.13,1.05.78,1.58,1.93l1-1.14.08.05c.64.34,1,1.54,1,1.59Z"/><path class="cls-15" d="M26.53,35.29l-.23-.07.06-.18.23.08C26.55,35.22,26.53,35.29,26.53,35.29Z"/><path class="cls-15" d="M17.9,29.25A2.67,2.67,0,0,1,18.45,27l.09.08A2.58,2.58,0,0,0,18,29.21Z"/><path class="cls-15" d="M32.28,42.61a2.24,2.24,0,0,1-1.46-.75l-.48-.39.07-.1c.17.12.33.27.49.4a1.8,1.8,0,0,0,1.78.67c.54-.14.65-.32.76-.5a1,1,0,0,1,.68-.52,2.74,2.74,0,0,1,1.71.13,4,4,0,0,0,.75.17.64.64,0,0,0,.7-.55h.12a.77.77,0,0,1-.76.66h-.07a3.61,3.61,0,0,1-.78-.18,2.74,2.74,0,0,0-1.64-.13.93.93,0,0,0-.61.47c-.12.2-.24.4-.83.56A1.67,1.67,0,0,1,32.28,42.61Z"/><path class="cls-15" d="M22.77,42.32l-1,0c-.69,0-.75-.34-.81-.64a1.08,1.08,0,0,0-.16-.43c-.2-.27-.72-.05-1.28.18-.26.1-.52.21-.77.28a.35.35,0,0,1-.36-.06c-.4-.39,0-1.91,0-2.09l.12,0c-.11.45-.33,1.69,0,2a.22.22,0,0,0,.24,0,7.77,7.77,0,0,0,.76-.28c.61-.25,1.18-.48,1.43-.14a1.21,1.21,0,0,1,.17.48c.06.3.11.51.7.54l1,0Z"/><path class="cls-15" d="M20.3,16.66l-.07-.1s1-.75,1-1.35a4.85,4.85,0,0,1,.53-1.71l.07-.15,0,.16a10.4,10.4,0,0,0,.9,2.46A.18.18,0,0,0,23,16c.33,0,.84-.72,1-1h0l.05,0h.06s0,.09.35.46a2.18,2.18,0,0,0,1.59.58v.12a2.27,2.27,0,0,1-1.68-.62A2.56,2.56,0,0,1,24,15.2c-.18.25-.67.92-1.05.95a.32.32,0,0,1-.27-.1,9.36,9.36,0,0,1-.89-2.35,4.55,4.55,0,0,0-.44,1.51C21.39,15.87,20.35,16.62,20.3,16.66Z"/><polygon class="cls-15" points="26.53 35.5 26.29 35.47 26.36 35.06 26.59 35.08 26.53 35.5"/><path class="cls-15" d="M33.05,38.11a10.63,10.63,0,0,1-3.47-.66l.08-.23c4.13,1.43,5.75,0,5.77,0l.16.17A3.81,3.81,0,0,1,33.05,38.11Z"/><path class="cls-15" d="M24.46,35.51c-.16-.42.48-.76.51-.77l.06.1s-.58.3-.45.63Z"/><path class="cls-15" d="M25.54,30.75a1.95,1.95,0,1,1,1.95-1.95A2,2,0,0,1,25.54,30.75Zm0-3.78a1.83,1.83,0,1,0,1.83,1.83A1.83,1.83,0,0,0,25.54,27Z"/><path class="cls-15" d="M34.14,30.1a2,2,0,1,1,2-2A2,2,0,0,1,34.14,30.1Zm0-3.78A1.83,1.83,0,1,0,36,28.15,1.83,1.83,0,0,0,34.14,26.32Z"/><path class="cls-15" d="M25.58,31.1h-.31V31a2.07,2.07,0,0,0,2-.75,2.4,2.4,0,0,0,.43-.91h.05A2.16,2.16,0,0,1,25.58,31.1Z"/><path class="cls-15" d="M33.94,30.51a2.19,2.19,0,0,1-1.71-.9l0,0a2.07,2.07,0,0,0,1.94.87,2.33,2.33,0,0,0,.94-.34l0,0A2.34,2.34,0,0,1,33.94,30.51Z"/><path class="cls-15" d="M26.05,29.2a.45.45,0,0,1,0-.89.45.45,0,0,1,0,.89Zm0-.65c-.08,0-.15.09-.15.2s.07.21.15.21.15-.09.15-.21S26.13,28.55,26.05,28.55Z"/><path class="cls-15" d="M34.69,28.57a.43.43,0,1,1,.36-.42A.39.39,0,0,1,34.69,28.57Zm0-.6s-.11.07-.11.18.06.18.11.18.12-.08.12-.18S34.75,28,34.69,28Z"/><rect class="cls-15" x="22.77" y="26.35" width="4.93" height="0.72"/><rect class="cls-15" x="31.39" y="25.72" width="4.93" height="0.72"/><path class="cls-15" d="M29.84,33s-.41-.95,0-1.25a7.06,7.06,0,0,1,2.75,0l0,0h0a.44.44,0,0,1,.24.27c.08.22,0,.5-.25.85l-.1-.07a.92.92,0,0,0,.24-.75.37.37,0,0,0-.22-.21l-.19,0a7.42,7.42,0,0,0-2.43,0c-.29.2-.08.86,0,1.1Z"/><path class="cls-15" d="M26.28,18.36a.73.73,0,0,1-.36-.6.93.93,0,0,1,.46-.64l.06.1s-.38.23-.4.54a.62.62,0,0,0,.32.5Z"/><path class="cls-15" d="M28.64,17.81a.38.38,0,0,1-.31-.13c-.15-.19,0-.52,0-.54l.11.05c0,.08-.11.31,0,.42s.16.09.32.07l0,.12Z"/><path class="cls-15" d="M29.88,18.4a.42.42,0,0,1-.18,0l0-.11a.28.28,0,0,0,.28,0c.22-.14.29-.61.29-.78h.12s0,.68-.34.88A.37.37,0,0,1,29.88,18.4Z"/><path class="cls-15" d="M31,47h-.1v-.12c.18,0,.3,0,.35-.08s0-.25,0-.25l0-.08h.08a8.87,8.87,0,0,1,1.29,0c.36.06.7-.42.81-.91a.33.33,0,0,1,.17-.24c.31-.15.91.08,1.16.19h0l0,.05,0,0c-.19-.08-.79-.33-1.06-.19a.23.23,0,0,0-.12.15c-.12.54-.48,1.08-.94,1a7.72,7.72,0,0,0-1.18,0,.44.44,0,0,1,0,.29A.43.43,0,0,1,31,47Z"/><path class="cls-15" d="M34.64,45.58c-.07-.14-.28-.61,0-.81s.85,0,.87,0l-.05.12a.94.94,0,0,0-.75,0c-.22.15,0,.54,0,.66Z"/><path class="cls-15" d="M8.1,55.93,8,55.9H7.86v0c.9-3.15,5.45-7.31,6.19-8a1.33,1.33,0,0,1-.43-1.25c.32-1.42,3.26-2.37,3.38-2.41l.08.23s-2.94,1-3.23,2.23a1.18,1.18,0,0,0,.46,1.11l.09.09-.1.09C14.26,48,9,52.64,8.1,55.93Z"/><rect class="cls-15" x="18.58" y="45.4" width="0.24" height="10.46" transform="translate(-34.25 40.15) rotate(-58.53)"/><path class="cls-15" d="M46.38,57.4h-.12c0-1.59-1.11-3.77-3.06-6.32a39.23,39.23,0,0,0-3.12-3.57l.17-.17c.25.25,6.12,6.08,6.25,10Z"/><polygon class="cls-15" points="40.08 47.51 40.07 47.5 40.24 47.34 40.08 47.51"/><polygon class="cls-15" points="46.29 57.48 46.29 57.48 46.47 57.31 46.29 57.48"/><path class="cls-15" d="M30.42,50.08a5.52,5.52,0,0,1-.81-.08h0l0,0a.94.94,0,0,0-.71-.49,1.33,1.33,0,0,0-.93.5l-.1-.08a1.46,1.46,0,0,1,1-.54,1.05,1.05,0,0,1,.8.53,2.61,2.61,0,0,0,1.18,0l.06.1A.91.91,0,0,1,30.42,50.08Z"/><path class="cls-15" d="M31.69,52.56l-.1,0c-.53-.09-2.27-.41-2.27-.8h.12c0,.19,1.06.49,2.08.67-.1-.33-.08-.54,0-.65s.33-.1.63,0l0,.11c-.25-.11-.43-.12-.5,0s-.11.21,0,.61Z"/><path class="cls-15" d="M36.38,49.87a1.28,1.28,0,0,1-.73-.4c-.33-.19-.82.19-.91.27l0,0-.07-.1,0,0c.15-.13.67-.51,1.06-.28h0s.43.47.76.35l0,.11A.51.51,0,0,1,36.38,49.87Z"/><polygon class="cls-15" points="32.1 50.04 32.1 49.92 32.1 49.92 32.1 50.04"/><path class="cls-15" d="M31.48,50.27v-.12l.29-.11.31-.11,0,.11-.3.12Z"/><path class="cls-15" d="M34.26,68.35H34c0-1,1.23-8.42,1.36-9.19l-.32-.38.19-.15.38.46v0C35.61,59.23,34.26,67.3,34.26,68.35Z"/><path class="cls-15" d="M49.61,37.9l0,0a.71.71,0,0,0,.38-.62.69.69,0,0,0-.69-.69.71.71,0,0,0-.66.46h0a.73.73,0,0,1,.7-.5.74.74,0,0,1,.74.74A.73.73,0,0,1,49.61,37.9Z"/><path class="cls-15" d="M48.84,37.35a.68.68,0,0,0-.64-.44.69.69,0,0,0-.54.25l0,0a.75.75,0,0,1,.58-.27.69.69,0,0,1,.41.13.72.72,0,0,1,.28.34Z"/><path class="cls-15" d="M45.52,37.18v-.06a.85.85,0,0,1,.85-.85.82.82,0,0,1,.56.22l0,0a.78.78,0,0,0-.54-.21.83.83,0,0,0-.83.82v.06Z"/><path class="cls-15" d="M47.19,37.12A.82.82,0,0,0,47,36.6h0a.85.85,0,0,1,.18.53Z"/><path class="cls-15" d="M44.39,37.31a.78.78,0,0,1,0-.16.59.59,0,0,1,1.18,0v0l0,0v0a.51.51,0,0,0-.54-.48.52.52,0,0,0-.55.48.4.4,0,0,0,0,.15Z"/><path class="cls-15" d="M46.16,41.09a10.58,10.58,0,0,1-5.65-1.74l0,0a12.33,12.33,0,0,0-1.87-2.18A7.83,7.83,0,0,0,38,36.6a6.55,6.55,0,0,0-1.38-.8,4.94,4.94,0,0,0-.57-.2h-.09v-.82l.15,0a8.43,8.43,0,0,1,1.94.94c.27.17.53.35.77.53a13.48,13.48,0,0,1,2.48,2.43c1.83.74,2.19.59,2.25.56a5.43,5.43,0,0,1,.61-2l0-.05.24,0,1.14-.13C46.14,37,46.7,37,47.21,37c.15,0,.3,0,.44,0a7.1,7.1,0,0,1,.94.12l.31.07-.07.23-.29-.07a8.39,8.39,0,0,0-.91-.11c-.14,0-.28,0-.43,0a16.4,16.4,0,0,0-1.66.06c-.33,0-.69.07-1.11.13l-.13,0a4.79,4.79,0,0,0-.56,1.83.24.24,0,0,1-.11.2c-.29.19-1.13,0-2.5-.55h0l0,0a13.85,13.85,0,0,0-2.45-2.41c-.24-.18-.49-.35-.76-.52a9.21,9.21,0,0,0-1.72-.86v.29a4.69,4.69,0,0,1,.51.19,6.78,6.78,0,0,1,1.43.83,8.2,8.2,0,0,1,.68.55,12.69,12.69,0,0,1,1.9,2.21,9.71,9.71,0,0,0,8.52,1.12c0-.34.23-1.85.29-2.42,0-.06,0-.11,0-.15a3.07,3.07,0,0,0-.66-.27l.06-.23a2.24,2.24,0,0,1,.8.35l0,0v0s0,.11,0,.23c-.07.65-.3,2.48-.3,2.5v.07l-.07,0A8.5,8.5,0,0,1,46.16,41.09Z"/><polygon class="cls-15" points="48.87 37.36 48.87 37.36 48.87 37.31 48.87 37.36"/><path class="cls-15" d="M56.58,32.9a3.8,3.8,0,0,1-.89-.1,3.48,3.48,0,0,1-.9-6.49h0a3.83,3.83,0,0,1,1.79-.45,3.52,3.52,0,1,1,0,7Zm-1.67-6.38a3.29,3.29,0,0,0,1.67,6.14,3.28,3.28,0,1,0,0-6.56,3.57,3.57,0,0,0-1.67.42Z"/><path class="cls-15" d="M45.31,36a.81.81,0,1,1,.81-.81A.81.81,0,0,1,45.31,36Zm0-1.5a.69.69,0,1,0,.69.69A.69.69,0,0,0,45.31,34.51Z"/><path class="cls-15" d="M48.54,33.07a2.34,2.34,0,1,1,2.21-2.52h-.11A2.11,2.11,0,1,0,48.54,33a1.9,1.9,0,0,0,.81-.17l0,.11A2.06,2.06,0,0,1,48.54,33.07Z"/><path class="cls-15" d="M51.18,34.29a1.94,1.94,0,0,1-1.87-1.44,2,2,0,0,1-.06-.49,2,2,0,0,1,1.43-1.87,2.07,2.07,0,0,1,1,0h0A1.94,1.94,0,0,1,52,34.13,1.85,1.85,0,0,1,51.18,34.29Zm0-3.74a1.84,1.84,0,0,0-.47.06,1.81,1.81,0,0,0-1.34,1.75,1.76,1.76,0,0,0,.06.46,1.81,1.81,0,0,0,1.75,1.35,1.77,1.77,0,0,0,.73-.15,1.81,1.81,0,0,0-.27-3.41A1.76,1.76,0,0,0,51.18,30.55Z"/><path class="cls-15" d="M47.18,36.67a.35.35,0,0,1-.18-.05.52.52,0,0,1-.1-.11.29.29,0,0,1,0-.16.32.32,0,1,1,.32.32Zm0-.59a.28.28,0,0,0-.28.27.37.37,0,0,0,0,.14h0l.09.09a.24.24,0,0,0,.15,0,.27.27,0,0,0,0-.54Z"/><path class="cls-15" d="M46.92,30.35h-.08a1,1,0,0,1,.5-.78l0,.06A.87.87,0,0,0,46.92,30.35Z"/><path class="cls-15" d="M50.82,33.72a.78.78,0,0,1-.67-.42l.06,0a.71.71,0,0,0,1,.3l0,.07A1.18,1.18,0,0,1,50.82,33.72Z"/><path class="cls-15" d="M54.32,28.92l-.24,0a2.54,2.54,0,0,1,.9-1.57,2.06,2.06,0,0,1,.5-.31l.08.23a1.81,1.81,0,0,0-.43.27A2.27,2.27,0,0,0,54.32,28.92Z"/><path class="cls-15" d="M44.94,35.52a.29.29,0,0,1-.14-.22.34.34,0,0,1,.14-.25l0,.05a.31.31,0,0,0-.11.2.26.26,0,0,0,.11.16Z"/><path class="cls-15" d="M31.79,48.77c-.13,0-.18-.19-.24-.36a.73.73,0,0,0-.07-.17l-.05,0c-.24-.14-.48-.3-.48-.48s0-.18.31-.37a3.63,3.63,0,0,1,.35-.2A2.34,2.34,0,0,1,32.2,47c.33,0,1.4-.16,1.48.08,0,0,0,.13-.2.59.2.66.08.7,0,.73l-.08-.23a.12.12,0,0,0,0,.06,2.5,2.5,0,0,0-.11-.54v-.05l0,0a3.72,3.72,0,0,0,.18-.41,6.81,6.81,0,0,0-1.2,0,1.92,1.92,0,0,0-.52.16,2.13,2.13,0,0,0-.31.18.9.9,0,0,0-.21.18,1.2,1.2,0,0,0,.36.27l.07,0a.61.61,0,0,1,.16.28.77.77,0,0,0,.09.22Z"/><path class="cls-15" d="M35.22,58.89l-.13-.08c-.07,0-6.71-4.08-8.29-4.43l-.11,0,.31-2.1a4.72,4.72,0,0,0-3.76,1.19l-.16-.18a4.83,4.83,0,0,1,4.08-1.22l.11,0L27,54.17c1.64.46,7,3.69,8.08,4.33-.35-2-12.3-10-16.61-12.78l0,0,.09-.08.06-.1c.71.45,17.33,11.14,16.72,13.22Z"/><path class="cls-15" d="M35.67,59.13,35.5,59c.49-.51,3-3.12,3.68-4.92l-.46-.74.14,0a5.75,5.75,0,0,0,1.6-.76l-.06-.24-.37-5h.08a24.68,24.68,0,0,0-2.86-1.23L37.12,46c0,.5,0,2-.1,3.79,0,.79-.07,1.55-.12,2.26-.09,1.41-.19,2.62-.32,3.62l-.24,0c.13-1,.23-2.2.32-3.6.05-.71.09-1.47.12-2.26.09-2.19.1-3.94.1-3.95v-.18l.45.18c3.25,1.25,3.2,1.43,3.16,1.58s-.09.12-.21.13l.35,4.66,0,.24c0,.09.09.35-1.61,1l.37.59,0,.06C38.72,55.92,36.17,58.61,35.67,59.13Z"/><path class="cls-15" d="M35.58,59.22l0-.08-.11-.1,0,0,0,0,.16.18,0,0Z"/><path class="cls-15" d="M35.61,59.19,35.46,59l.2.14Z"/><polygon class="cls-15" points="35.57 59.18 35.57 59.06 35.45 59.06 35.47 59.01 35.48 58.97 35.53 58.94 35.57 59.02 35.57 58.94 35.58 59.05 35.6 59.06 35.69 59.06 35.69 59.18 35.57 59.18"/><path class="cls-15" d="M35.67,59.13,35.49,59a5.86,5.86,0,0,0,.72-2.42l.24,0A5.91,5.91,0,0,1,35.67,59.13Z"/><path class="cls-15" d="M36.46,56.55l-.24,0c0-.25.08-.52.11-.8l.24,0C36.54,56,36.5,56.29,36.46,56.55Z"/><path class="cls-15" d="M35.55,59.21l-.42-.47v-.05a.42.42,0,0,0,0-.2,3,3,0,0,0-.39-.66A18.52,18.52,0,0,0,31.65,55l-.06-.05,0-.08a23.37,23.37,0,0,0,.48-3.38A7.73,7.73,0,0,0,32,50a12.36,12.36,0,0,0-.27-1.32l.12,0,0-.12,1.69-.41L36.91,52v.05s-.22,2.58-.32,3.61v.1a7,7,0,0,1-.11.78v0a10.41,10.41,0,0,1-.82,2.47Zm-.18-.55.12.13a10,10,0,0,0,.72-2.25l0,0c0-.24.08-.49.1-.74l.12,0h-.12v-.06c.09-.95.28-3.2.32-3.57L33.4,48.4,32,48.75A11.5,11.5,0,0,1,32.22,50a7.46,7.46,0,0,1,.11,1.51,21.51,21.51,0,0,1-.47,3.36,18.34,18.34,0,0,1,3,2.85,4.27,4.27,0,0,1,.42.71A.73.73,0,0,1,35.37,58.66Z"/><path class="cls-15" d="M38.58,36.41a1.07,1.07,0,0,0-.07-.27v0a9.09,9.09,0,0,0-.41-3.21l-.12,0,0-.12s-.72-3.22-1.83-6.68c-1.5-4.67-3-7.64-4.38-8.61l0,0a17.77,17.77,0,0,0-2.35-2.37c-.05,0-.18.07-.35.38a3.13,3.13,0,0,0-.21.5l-.07.21L27.6,14.82l-1,.88.08-.36c.09-.38.3-1.34.35-1.76a9,9,0,0,0-.62.77l-.19-.15c.71-1,.89-.95.95-.93s.11,0,.11.18A14.65,14.65,0,0,1,27,15l.66-.56,1,1.25c0-.1.1-.22.16-.34.21-.4.43-.57.64-.5a19.25,19.25,0,0,1,2.44,2.43c1.42,1,2.92,4,4.46,8.72,1,3.16,1.7,6.1,1.82,6.62l.06,0c.42.32.49,2.81.51,3.37a2.17,2.17,0,0,1,.08.3Z"/><path class="cls-15" d="M29.17,48H27.88v-.24h1.29A5.81,5.81,0,0,0,31,47.49a1,1,0,0,0,.26-.15l.06-.05a1.79,1.79,0,0,1,.22-.13,2.74,2.74,0,0,1,.64-.22l.85-.06c.15-.21.79-1,1.6-.78a.64.64,0,0,0,.53,0,.76.76,0,0,0,.28-.47v-.09h.1c.25,0,1.52-.11,1.79.29a.08.08,0,0,0,0,0c.11.07.43-.2.6-.41l0-.05.77.11a.72.72,0,0,0-.52-.71,1.22,1.22,0,0,1-.83-1.16.46.46,0,0,1,.51-.39c.15,0,.19-.06.2-.08.1-.18-.08-.63-.19-.82v0a8.5,8.5,0,0,1-.12-1.1c0-.35-.12-1.78-.12-1.79a2.07,2.07,0,0,1,.26-.75l0,0c.08-.16.2-.41.31-.69a4.36,4.36,0,0,0,.27-.88l.24,0a4.53,4.53,0,0,1-.29.94c-.11.28-.24.53-.32.7l0,0a2.06,2.06,0,0,0-.24.64s.12,1.43.12,1.79a9,9,0,0,0,.11,1c.07.13.37.72.18,1a.45.45,0,0,1-.41.2c-.24,0-.26.14-.27.18a1,1,0,0,0,.66.9,1,1,0,0,1,.68,1.1v.11l-.9-.12c-.15.17-.55.58-.86.41a.43.43,0,0,1-.12-.11c-.14-.2-.92-.24-1.49-.2a.89.89,0,0,1-.36.54.86.86,0,0,1-.73.06c-.75-.21-1.36.72-1.37.73l0,0-1,.07a3.34,3.34,0,0,0-.56.2,1,1,0,0,0-.18.11l-.06,0a1.1,1.1,0,0,1-.33.19A6,6,0,0,1,29.17,48Z"/><path class="cls-15" d="M28.09,47.9h-.24v-.8l-1.55.44a2.63,2.63,0,0,1-2.47-.82c-.49.11-2.07.42-2.44-.07a4.67,4.67,0,0,0-.9-.85,3.28,3.28,0,0,0-1.94-.08C17.87,46.13,17,45,17,45l0,0V43.61l-2.26.5.58-1.17.24-.95a5.54,5.54,0,0,0,.09-1.53,3.52,3.52,0,0,1-1.4,1c-.06,0-.22.06-.3-.05s0-.25.07-.3a.79.79,0,0,0,.18-.74,2,2,0,0,1,0-.9,6.61,6.61,0,0,0,.13-1.3,3.21,3.21,0,0,1,.38-1.87c.3-.3.23-2.87.15-4.06a3.72,3.72,0,0,1-1.08,1l-.15.09-.15-.9c-.12-.73,1.28-4.23,1.45-4.62.47-2.37,4.16-10.13,4.32-10.45a5.67,5.67,0,0,0,0-2.45l-.08-.39.28.28a.67.67,0,0,0,.92,0,.24.24,0,0,0,.09-.17c0-.51-.84-1.57-1.18-1.93l-.4-.43,1.34.59-1.11-2.59,2.12,1.33.57-1.41.51,2.07.62-.62,0,.24c.06.46.35.49.8.47a1.52,1.52,0,0,1,.44,0,8.1,8.1,0,0,1,1.47,1.22l.59-1.69.14.14c.57.58.17,1.89,0,2.27l-.23-.07h0a3,3,0,0,0,.15-1.85L25.74,14l-.13-.14a8.8,8.8,0,0,0-1.52-1.29,1.21,1.21,0,0,0-.35,0c-.33,0-.82,0-1-.46l-.6.6L21.7,11l-.39,1-1.72-1.07,1.05,2.45-.87-.39a3.3,3.3,0,0,1,.89,1.71.45.45,0,0,1-.18.34.93.93,0,0,1-1,.16,4.81,4.81,0,0,1,0,2.32c0,.08-3.84,8.06-4.32,10.42-.43,1.08-1.53,3.95-1.44,4.51l.09.54c.38-.25,1-.77,1-1.24,0-.07,0-.16.09-.18l.09,0,.05.08a.45.45,0,0,0,0,.08h0c.06.64.32,4.33-.16,4.81a3.4,3.4,0,0,0-.31,1.71,6.39,6.39,0,0,1-.14,1.36,1.73,1.73,0,0,0,0,.8,1,1,0,0,1-.17.86,3.86,3.86,0,0,0,1-.65.76.76,0,0,0,.31-.44v-.6l.24,0a8,8,0,0,1,0,2.57l-.25,1-.36.74,2.06-.46v1.55c.24.29.85.9,1.26.66.63-.39,2.08,0,2.14.06h0a5.26,5.26,0,0,1,1,.92c.22.3,1.51.13,2.27,0l.1,0,0,.09s.48.88,2.27.77l1.82-.52Z"/><path class="cls-15" d="M24.12,63c-3.17,0-3.41-4.23-3.41-4.27v-.13h7v.12C27.67,58.74,27.48,63,24.12,63ZM21,58.81c.06.68.51,3.92,3.16,3.92,2.81,0,3.24-3.24,3.3-3.92Z"/></g><path class="cls-15" d="M73.73,11.81h7.33c4.63,0,6.9,2.57,6.9,7.28V34c0,4.71-2.27,7.28-6.9,7.28H73.73ZM78.21,16V37.07h2.61c1.48,0,2.36-.75,2.36-2.86V18.88c0-2.1-.88-2.86-2.36-2.86ZM101.5,41.28a8.82,8.82,0,0,1-.43-3.62V33c0-2.74-.92-3.75-3-3.75h-1.6v12H91.81V11.81h7c4.8,0,6.86,2.23,6.86,6.78V20.9c0,3-1,5-3,6,2.32,1,3.08,3.2,3.08,6.28V37.7a8.71,8.71,0,0,0,.5,3.58ZM96.44,16v9.05h1.81c1.73,0,2.78-.76,2.78-3.12v-2.9c0-2.11-.71-3-2.36-3Zm17.81,20.8v4.46h-4.46V36.82Zm10.44-25.35c4.51,0,6.82,2.7,6.82,7.41v.93h-4.38V18.59c0-2.11-.84-2.91-2.31-2.91s-2.32.8-2.32,2.91c0,6.06,9.05,7.2,9.05,15.62,0,4.72-2.35,7.41-6.9,7.41s-6.91-2.69-6.91-7.41V32.4h4.38v2.1c0,2.11.93,2.87,2.4,2.87s2.4-.76,2.4-2.87c0-6.06-9-7.2-9-15.62C117.87,14.17,120.19,11.47,124.69,11.47Zm10.19,7.41c0-4.71,2.48-7.41,7-7.41s7,2.7,7,7.41V34.21a8.71,8.71,0,0,1-.88,4.13c.21.54.55.63,1.3.63h.43v4.12h-.64c-2.06,0-3.37-.75-4-2a9.43,9.43,0,0,1-3.24.55c-4.55,0-7-2.69-7-7.41Zm4.63,15.62c0,2.11.93,2.91,2.4,2.91s2.4-.8,2.4-2.91V18.59c0-2.11-.93-2.91-2.4-2.91s-2.4.8-2.4,2.91ZM157.4,11.81V34.55c0,2.1.93,2.86,2.4,2.86s2.4-.76,2.4-2.86V11.81h4.38V34.25c0,4.72-2.36,7.41-6.9,7.41s-6.91-2.69-6.91-7.41V11.81Zm28.53,29.47h-4.68l-.8-5.34h-5.68l-.8,5.34h-4.25l4.71-29.47h6.78Zm-10.72-9.35h4.46L177.44,17ZM186,11.81h14.32V16H195.5V41.28h-4.63V16H186Zm30.82,18.48v3.92c0,4.72-2.36,7.41-6.91,7.41s-6.9-2.69-6.9-7.41V18.88c0-4.71,2.35-7.41,6.9-7.41s6.91,2.7,6.91,7.41v2.86h-4.38V18.59c0-2.11-.93-2.91-2.4-2.91s-2.4.8-2.4,2.91V34.5c0,2.11.93,2.87,2.4,2.87s2.4-.76,2.4-2.87V30.29Zm8.5,11h-4.63V11.81h4.63V24.44h5.26V11.81h4.72V41.28h-4.72V28.65h-5.26Z"/><rect class="cls-15" x="99.03" y="57.25" width="18.59" height="1.05"/><rect class="cls-15" x="190.08" y="57.25" width="17.94" height="1.05"/><path class="cls-15" d="M131.39,50.31a3.76,3.76,0,0,1,2.26.52,1.5,1.5,0,0,1,.69,1.24,2.14,2.14,0,0,1-.49,1.35,1.62,1.62,0,0,1-1.36.63c-.58,0-.87-.25-.87-.74a2.12,2.12,0,0,1,0-.27,1.09,1.09,0,0,0,.81-.36,1.17,1.17,0,0,0,.34-.79.81.81,0,0,0-.41-.7,1.73,1.73,0,0,0-1-.28,2.32,2.32,0,0,0-1.64.6,1.87,1.87,0,0,0-.65,1.41,1.83,1.83,0,0,0,.31.94,4.48,4.48,0,0,0,.59.81c.19.2.49.5.92.89l.76.71A4,4,0,0,1,133,59.11a3.4,3.4,0,0,1-1.39,2.67,5.07,5.07,0,0,1-3.32,1.14,5.5,5.5,0,0,1-2.55-.52,1.79,1.79,0,0,1-.57-2.7,1.35,1.35,0,0,1,1.12-.5,1,1,0,0,1,1,.51,1.45,1.45,0,0,0-.6,1.16,1.26,1.26,0,0,0,.45,1,1.8,1.8,0,0,0,1.19.37,2.55,2.55,0,0,0,1.81-.73,2.45,2.45,0,0,0,.78-1.86A4.31,4.31,0,0,0,129.42,57s-.21-.24-.59-.64a7.11,7.11,0,0,1-1-1.24,2.85,2.85,0,0,1-.39-1.51,2.9,2.9,0,0,1,1.17-2.4A4.35,4.35,0,0,1,131.39,50.31Z"/><path class="cls-15" d="M141.68,58.36c0-.07.07-.1.11-.1s.1.08.1.25a1.7,1.7,0,0,1-.66,1.37,2,2,0,0,1-1.23.54,1.54,1.54,0,0,1-1-.33A6,6,0,0,1,137.55,62a3.3,3.3,0,0,1-2.18.7,1.91,1.91,0,0,1-1.4-.52,2.12,2.12,0,0,1-.54-1.59,5.5,5.5,0,0,1,.49-2.21,5,5,0,0,1,1.47-2,3.35,3.35,0,0,1,2.2-.83q2,0,2,2.16a4.66,4.66,0,0,1-.36,1.73.85.85,0,0,0,.74.36C140.6,59.85,141.16,59.35,141.68,58.36Zm-2.86-1.06c0-.61-.32-.91-.82-.91-.79,0-1.56.77-2.31,2.3a5.33,5.33,0,0,0-.62,2.29c0,.69.3,1.05.89,1.08a1.77,1.77,0,0,0,1.37-.78,8.5,8.5,0,0,0,1-1.72,1.57,1.57,0,0,1-.58-1.25,1.05,1.05,0,0,1,.25-.74.86.86,0,0,1,.67-.27Z"/><path class="cls-15" d="M148.14,55.72l.86,0h.17a7,7,0,0,0-1.39,2.34,7.88,7.88,0,0,0-.82,2.73c0,.3.1.44.31.44.66,0,1.5-1,2.53-2.92,0-.08.08-.12.12-.12s.1.1.1.31a1.19,1.19,0,0,1-.17.61c-1.4,2.36-2.58,3.55-3.53,3.55-.61,0-.92-.48-.92-1.43a6.24,6.24,0,0,1,.36-2.08c-1.3,2.3-2.51,3.45-3.61,3.45-.77,0-1.15-.52-1.15-1.57a6.15,6.15,0,0,1,.52-2.43,5.86,5.86,0,0,1,1.5-2.1,3.13,3.13,0,0,1,2.14-.86,2.29,2.29,0,0,1,1,.24,1.24,1.24,0,0,1,.63.8,1.87,1.87,0,0,1,.58-.68A1.24,1.24,0,0,1,148.14,55.72Zm-1.42,1.13a.76.76,0,0,0-.81-.54q-1.12,0-2.19,1.56a5.17,5.17,0,0,0-1.06,2.8c0,.36.14.53.41.53a1.63,1.63,0,0,0,1-.55,6.68,6.68,0,0,0,1.08-1.31Q146.26,57.66,146.72,56.85Z"/><path class="cls-15" d="M156.72,58.91a10.76,10.76,0,0,1-2.23,2.93,4.22,4.22,0,0,1-2.84,1c-1.1,0-1.71-.28-1.85-.84l-1,3a8.72,8.72,0,0,1-.52,1.31.84.84,0,0,1-.4.38,1.55,1.55,0,0,1-.57.09h-.82a29.15,29.15,0,0,0,1.8-4.5q1.35-3.84,1.79-4.9a5.16,5.16,0,0,1,.64-1.28,1.94,1.94,0,0,1,1.42-.42h.51a6.35,6.35,0,0,0-1.35,2.06c1.06-1.42,2-2.12,2.81-2.12s1.15.52,1.15,1.57a5.16,5.16,0,0,1-.83,2.67A6.57,6.57,0,0,1,152.54,62h.14a2.36,2.36,0,0,0,1.43-.57,7,7,0,0,0,1.25-1.25,13.34,13.34,0,0,0,.83-1.28,8.12,8.12,0,0,1,.56-.89c.09,0,.14.09.14.29A1.2,1.2,0,0,1,156.72,58.91Zm-3.34-1.8-.16,0a1.28,1.28,0,0,0-.78.35A6.81,6.81,0,0,0,151,59.25a4.25,4.25,0,0,0-.79,2.07c0,.54.16.81.5.81.59,0,1.23-.59,1.93-1.77a6,6,0,0,0,1-2.75C153.64,57.32,153.55,57.16,153.38,57.11Z"/><path class="cls-15" d="M172.76,53.05a2.4,2.4,0,0,1-1,1.18,2.82,2.82,0,0,1-1.55.48,1,1,0,0,1-.61-.16.49.49,0,0,1-.24-.42,1,1,0,0,1,.2-.55,1.18,1.18,0,0,0,.43.07,1.88,1.88,0,0,0,1.23-.46,1.39,1.39,0,0,0,.57-1.11c0-.66-.44-1-1.32-1a5.76,5.76,0,0,0-3.41,1.2,9,9,0,0,0-2.68,3.11,8.15,8.15,0,0,0-1,3.88c0,2,.93,3,2.78,3A6.53,6.53,0,0,0,169.78,61a6.74,6.74,0,0,0,2.57-2.89.69.69,0,0,1,.33.6,3.17,3.17,0,0,1-1.1,1.91,8,8,0,0,1-2.76,1.81,9,9,0,0,1-3.39.68q-4,0-4-3.75a7.85,7.85,0,0,1,.63-3,11.07,11.07,0,0,1,1.71-2.88,8.67,8.67,0,0,1,2.7-2.18,6.8,6.8,0,0,1,3.19-.86,4.5,4.5,0,0,1,2.42.54,1.6,1.6,0,0,1,.84,1.38A2.06,2.06,0,0,1,172.76,53.05Z"/><path class="cls-15" d="M181,58.36c0-.07.06-.1.1-.1s.1.08.1.25a1.7,1.7,0,0,1-.66,1.37,2,2,0,0,1-1.23.54,1.51,1.51,0,0,1-1-.33A6,6,0,0,1,176.86,62a3.28,3.28,0,0,1-2.18.7,1.93,1.93,0,0,1-1.4-.52,2.12,2.12,0,0,1-.54-1.59,5.67,5.67,0,0,1,.49-2.21,5.23,5.23,0,0,1,1.47-2,3.35,3.35,0,0,1,2.2-.83q2,0,2,2.16a4.66,4.66,0,0,1-.36,1.73.85.85,0,0,0,.74.36C179.91,59.85,180.47,59.35,181,58.36Zm-2.86-1.06c0-.61-.32-.91-.82-.91-.79,0-1.56.77-2.32,2.3a5.31,5.31,0,0,0-.61,2.29c0,.69.29,1.05.89,1.08a1.76,1.76,0,0,0,1.36-.78,7.69,7.69,0,0,0,1.05-1.72,1.57,1.57,0,0,1-.58-1.25,1.05,1.05,0,0,1,.25-.74.86.86,0,0,1,.67-.27Z"/><path class="cls-15" d="M183.63,61.73a1.48,1.48,0,0,0-.55.4,2.61,2.61,0,0,0-.49.58c-.56-.18-.84-.42-.84-.7a.77.77,0,0,1,.37-.6,1.29,1.29,0,0,1,.85-.29c.46,0,.7.14.7.43A.65.65,0,0,1,183.63,61.73Z"/></g></g></svg>
